<?xml version="1.0" encoding="UTF-8"?>
<svg id="Layer_2" data-name="Layer 2" xmlns="http://www.w3.org/2000/svg" viewBox="0 0 137.39 192.73">
  <defs>
    <style>
      .cls-1 {
        fill: #f16123;
      }

      .cls-2 {
        fill: none;
        stroke: #f16123;
        stroke-linecap: round;
        stroke-linejoin: round;
        stroke-width: 10px;
      }
    </style>
  </defs>
  <g id="Layer_1-2" data-name="Layer 1">
    <path d="M137.24,61.26c-1.75-24.35-18.69-40.34-22.12-43.45C95.98.46,73.63,0,69.05,0,44.31,0,27.92,13.42,23.28,17.54,20.42,20.07,1.17,37.63.05,64.07c-.49,11.56,2.62,21.4,3.97,25.53,3.04,9.36,7.25,16.49,10.53,21.22,18.26,27.3,36.52,54.61,54.78,81.91,17.99-27.46,35.97-54.93,53.95-82.39,3.33-5.15,7.58-12.87,10.52-22.94,1.54-5.3,4.25-14.85,3.44-26.14ZM68.69,89.35c-10.95,0-19.84-8.88-19.84-19.84s8.89-19.84,19.84-19.84,19.84,8.88,19.84,19.84-8.88,19.84-19.84,19.84Z"/>
    <path class="cls-2" d="M28.53,75.54c-.5-3.19-2.25-16.76,6.5-29.33,11.04-15.86,29.54-16.83,32.89-16.93,3-.09,22.63-.37,34.84,15.96,9.22,12.33,9.73,28.15,4.64,39.88-4,9.23-10.8,14.43-14.34,17.06-9.87,7.36-19.99,9.13-24.87,9.65l.63,21.64"/>
    <circle class="cls-1" cx="69.34" cy="156.38" r="6.79"/>
  </g>
</svg>