<?xml version="1.0" encoding="UTF-8"?>
<svg id="Layer_1" data-name="Layer 1" xmlns="http://www.w3.org/2000/svg" viewBox="0 0 1000 1000">
  <defs>
    <style>
      .cls-1 {
        fill: #231f20;
      }

      .cls-1, .cls-2, .cls-3 {
        stroke-miterlimit: 10;
      }

      .cls-1, .cls-3 {
        stroke: #231f20;
      }

      .cls-2 {
        stroke: #000;
        stroke-linecap: round;
        stroke-width: 22px;
      }

      .cls-2, .cls-3 {
        fill: none;
      }
    </style>
  </defs>
  <circle class="cls-3" cx="500" cy="482.26" r="323.12"/>
  <path class="cls-1" d="m495.52,612.42c-11.51,0-23.96-1.29-37.08-4.53-44.33-10.95-71.89-38.49-84.38-53.92-4.34-5.37-3.51-13.24,1.86-17.58s13.24-3.51,17.58,1.86c10.51,13,33.7,36.17,70.93,45.37,30.93,7.64,57.53,2.31,74.4-3.5,32.52-11.21,52.59-32.52,61.67-44.22,4.23-5.46,12.08-6.45,17.54-2.22,5.46,4.23,6.45,12.08,2.22,17.54-10.78,13.9-34.63,39.21-73.28,52.54-12.92,4.45-30.64,8.66-51.46,8.66h0Z"/>
  <circle class="cls-1" cx="612.07" cy="407.7" r="17.92"/>
  <path class="cls-2" d="m367.12,402.59c1.06,1.98,4.42,7.73,10.27,9.91,4.93,1.84,9,.16,10.77-.76,5.02-2.61,7.87-7.62,8.92-9.65"/>
</svg>