<?xml version="1.0" encoding="UTF-8"?>
<svg id="Layer_1" data-name="Layer 1" xmlns="http://www.w3.org/2000/svg" viewBox="0 0 1000 1000">
  <defs>
    <style>
      .cls-1 {
        stroke: #000;
        stroke-linecap: round;
        stroke-width: 15px;
      }

      .cls-1, .cls-2, .cls-3 {
        stroke-miterlimit: 10;
      }

      .cls-1, .cls-3 {
        fill: none;
      }

      .cls-2 {
        fill: #231f20;
      }

      .cls-2, .cls-3 {
        stroke: #231f20;
      }
    </style>
  </defs>
  <circle class="cls-3" cx="500" cy="482.26" r="323.12"/>
  <path class="cls-2" d="m495.52,612.42c-11.51,0-23.96-1.29-37.08-4.53-44.33-10.95-71.89-38.49-84.38-53.92-4.34-5.37-3.51-13.24,1.86-17.58s13.24-3.51,17.58,1.86c10.51,13,33.7,36.17,70.93,45.37,30.93,7.64,57.53,2.31,74.4-3.5,32.52-11.21,52.59-32.52,61.67-44.22,4.23-5.46,12.08-6.45,17.54-2.22,5.46,4.23,6.45,12.08,2.22,17.54-10.78,13.9-34.63,39.21-73.28,52.54-12.92,4.45-30.64,8.66-51.46,8.66h0Z"/>
  <g>
    <path class="cls-1" d="m612.07,382.62v50.15"/>
    <path class="cls-1" d="m632.96,393.84c-13.93,9.24-27.87,18.48-41.8,27.72"/>
    <path class="cls-1" d="m632.15,422.71c-13.39-10.01-26.78-20.02-40.17-30.03"/>
  </g>
  <g>
    <path class="cls-1" d="m382.1,382.62v50.15"/>
    <path class="cls-1" d="m403,393.84c-13.93,9.24-27.87,18.48-41.8,27.72"/>
    <path class="cls-1" d="m402.18,422.71c-13.39-10.01-26.78-20.02-40.17-30.03"/>
  </g>
</svg>